<svg xmlns="http://www.w3.org/2000/svg" width="25" height="25" viewBox="0 0 25 25" fill="none">
<path fill-rule="evenodd" clip-rule="evenodd" d="M12.5 3.5C7.52944 3.5 3.5 7.52944 3.5 12.5C3.5 17.4706 7.52944 21.5 12.5 21.5C17.4706 21.5 21.5 17.4706 21.5 12.5C21.5 7.52944 17.4706 3.5 12.5 3.5ZM1.5 12.5C1.5 6.42487 6.42487 1.5 12.5 1.5C18.5751 1.5 23.5 6.42487 23.5 12.5C23.5 18.5751 18.5751 23.5 12.5 23.5C6.42487 23.5 1.5 18.5751 1.5 12.5Z" fill="#EA202A"/>
<path d="M6.79289 13.2071C6.40237 12.8166 6.40237 12.1834 6.79289 11.7929C7.18342 11.4024 7.81658 11.4024 8.20711 11.7929L11.5 15.0858L11.5 8.5C11.5 7.94772 11.9477 7.5 12.5 7.5C13.0523 7.5 13.5 7.94772 13.5 8.5V15.0858L16.7929 11.7929C17.1834 11.4024 17.8166 11.4024 18.2071 11.7929C18.5976 12.1834 18.5976 12.8166 18.2071 13.2071L13.2083 18.2059C13.2043 18.21 13.2002 18.214 13.1961 18.218C13.0167 18.3919 12.7724 18.4992 12.503 18.5L12.5 18.5L12.497 18.5C12.3625 18.4996 12.2343 18.4727 12.1172 18.4241C11.9993 18.3753 11.8888 18.303 11.7929 18.2071L6.79289 13.2071Z" fill="#EA202A"/>
</svg>